# MagicaVoxel @ Ephtracy

# group
o 

# material
mtllib blue_blob.mtl
usemtl palette

# normals
vn -1 0 0
vn 1 0 0
vn 0 0 1
vn 0 0 -1
vn 0 -1 0
vn 0 1 0

# texcoords
vt 0.259766 0.5
vt 0.423828 0.5
vt 0.939453 0.5
vt 0.958984 0.5

# verts
v 0 2 -0.2
v 0 2 -3.8
v 0 2.1 -0.1
v 0 2.1 -0.2
v 0 2.1 -3.8
v 0 2.1 -3.9
v 0 2.2 0
v 0 2.2 -0.1
v 0 2.2 -3.9
v 0 2.2 -4
v 0 5.8 0
v 0 5.8 -0.1
v 0 5.8 -3.9
v 0 5.8 -4
v 0 5.9 -0.1
v 0 5.9 -0.2
v 0 5.9 -3.8
v 0 5.9 -3.9
v 0 6 -0.2
v 0 6 -3.8
v 0.1 2 -0.1
v 0.1 2 -0.2
v 0.1 2 -3.8
v 0.1 2 -3.9
v 0.1 2.1 0
v 0.1 2.1 -0.1
v 0.1 2.1 -0.2
v 0.1 2.1 -3.8
v 0.1 2.1 -3.9
v 0.1 2.1 -4
v 0.1 2.2 0
v 0.1 2.2 -0.1
v 0.1 2.2 -3.9
v 0.1 2.2 -4
v 0.1 5.8 0
v 0.1 5.8 -0.1
v 0.1 5.8 -3.9
v 0.1 5.8 -4
v 0.1 5.9 0
v 0.1 5.9 -0.1
v 0.1 5.9 -0.2
v 0.1 5.9 -3.8
v 0.1 5.9 -3.9
v 0.1 5.9 -4
v 0.1 6 -0.1
v 0.1 6 -0.2
v 0.1 6 -3.8
v 0.1 6 -3.9
v 0.2 2 0
v 0.2 2 -0.1
v 0.2 2 -3.9
v 0.2 2 -4
v 0.2 2.1 0
v 0.2 2.1 -0.1
v 0.2 2.1 -3.9
v 0.2 2.1 -4
v 0.2 5.9 0
v 0.2 5.9 -0.1
v 0.2 5.9 -3.9
v 0.2 5.9 -4
v 0.2 6 0
v 0.2 6 -0.1
v 0.2 6 -3.9
v 0.2 6 -4
v 3.8 2 0
v 3.8 2 -0.1
v 3.8 2 -3.9
v 3.8 2 -4
v 3.8 2.1 0
v 3.8 2.1 -0.1
v 3.8 2.1 -3.9
v 3.8 2.1 -4
v 3.8 5.9 0
v 3.8 5.9 -0.1
v 3.8 5.9 -3.9
v 3.8 5.9 -4
v 3.8 6 0
v 3.8 6 -0.1
v 3.8 6 -3.9
v 3.8 6 -4
v 3.9 2 -0.1
v 3.9 2 -0.2
v 3.9 2 -3.8
v 3.9 2 -3.9
v 3.9 2.1 0
v 3.9 2.1 -0.1
v 3.9 2.1 -0.2
v 3.9 2.1 -3.8
v 3.9 2.1 -3.9
v 3.9 2.1 -4
v 3.9 2.2 0
v 3.9 2.2 -0.1
v 3.9 2.2 -3.9
v 3.9 2.2 -4
v 3.9 5.8 0
v 3.9 5.8 -0.1
v 3.9 5.8 -3.9
v 3.9 5.8 -4
v 3.9 5.9 0
v 3.9 5.9 -0.1
v 3.9 5.9 -0.2
v 3.9 5.9 -3.8
v 3.9 5.9 -3.9
v 3.9 5.9 -4
v 3.9 6 -0.1
v 3.9 6 -0.2
v 3.9 6 -3.8
v 3.9 6 -3.9
v 4 2 -0.2
v 4 2 -3.8
v 4 2.1 -0.1
v 4 2.1 -0.2
v 4 2.1 -3.8
v 4 2.1 -3.9
v 4 2.2 0
v 4 2.2 -0.1
v 4 2.2 -3.9
v 4 2.2 -4
v 4 3.7 -1.1
v 4 3.7 -1.3
v 4 3.7 -2.7
v 4 3.7 -2.9
v 4 3.8 -0.9
v 4 3.8 -1.1
v 4 3.8 -1.3
v 4 3.8 -1.7
v 4 3.8 -2.3
v 4 3.8 -2.7
v 4 3.8 -2.9
v 4 3.8 -3.1
v 4 3.9 -0.9
v 4 3.9 -1.1
v 4 3.9 -1.8
v 4 3.9 -2.2
v 4 3.9 -2.9
v 4 3.9 -3.1
v 4 4 -0.6
v 4 4 -1.4
v 4 4 -1.7
v 4 4 -1.8
v 4 4 -2.2
v 4 4 -2.3
v 4 4 -2.6
v 4 4 -3.4
v 4 4.7 -1.2
v 4 4.7 -1.3
v 4 4.7 -3.2
v 4 4.7 -3.3
v 4 4.8 -1
v 4 4.8 -1.1
v 4 4.8 -1.2
v 4 4.8 -1.3
v 4 4.8 -3
v 4 4.8 -3.1
v 4 4.8 -3.2
v 4 4.8 -3.3
v 4 5 -1
v 4 5 -1.1
v 4 5 -3
v 4 5 -3.1
v 4 5.1 -0.6
v 4 5.1 -1.4
v 4 5.1 -2.6
v 4 5.1 -3.4
v 4 5.8 0
v 4 5.8 -0.1
v 4 5.8 -3.9
v 4 5.8 -4
v 4 5.9 -0.1
v 4 5.9 -0.2
v 4 5.9 -3.8
v 4 5.9 -3.9
v 4 6 -0.2
v 4 6 -3.8
v 0 2.2 0
v 0 5.8 0
v 0.1 2.1 0
v 0.1 2.2 0
v 0.1 5.8 0
v 0.1 5.9 0
v 0.2 2 0
v 0.2 2.1 0
v 0.2 5.9 0
v 0.2 6 0
v 3.8 2 0
v 3.8 2.1 0
v 3.8 5.9 0
v 3.8 6 0
v 3.9 2.1 0
v 3.9 2.2 0
v 3.9 5.8 0
v 3.9 5.9 0
v 4 2.2 0
v 4 5.8 0
v 0 2.1 -0.1
v 0 2.2 -0.1
v 0 5.8 -0.1
v 0 5.9 -0.1
v 0.1 2 -0.1
v 0.1 2.1 -0.1
v 0.1 2.2 -0.1
v 0.1 5.8 -0.1
v 0.1 5.9 -0.1
v 0.1 6 -0.1
v 0.2 2 -0.1
v 0.2 2.1 -0.1
v 0.2 5.9 -0.1
v 0.2 6 -0.1
v 3.8 2 -0.1
v 3.8 2.1 -0.1
v 3.8 5.9 -0.1
v 3.8 6 -0.1
v 3.9 2 -0.1
v 3.9 2.1 -0.1
v 3.9 2.2 -0.1
v 3.9 5.8 -0.1
v 3.9 5.9 -0.1
v 3.9 6 -0.1
v 4 2.1 -0.1
v 4 2.2 -0.1
v 4 5.8 -0.1
v 4 5.9 -0.1
v 0 2 -0.2
v 0 2.1 -0.2
v 0 5.9 -0.2
v 0 6 -0.2
v 0.1 2 -0.2
v 0.1 2.1 -0.2
v 0.1 5.9 -0.2
v 0.1 6 -0.2
v 3.9 2 -0.2
v 3.9 2.1 -0.2
v 3.9 5.9 -0.2
v 3.9 6 -0.2
v 4 2 -0.2
v 4 2.1 -0.2
v 4 5.9 -0.2
v 4 6 -0.2
v 0 2 -3.8
v 0 2.1 -3.8
v 0 5.9 -3.8
v 0 6 -3.8
v 0.1 2 -3.8
v 0.1 2.1 -3.8
v 0.1 5.9 -3.8
v 0.1 6 -3.8
v 3.9 2 -3.8
v 3.9 2.1 -3.8
v 3.9 5.9 -3.8
v 3.9 6 -3.8
v 4 2 -3.8
v 4 2.1 -3.8
v 4 5.9 -3.8
v 4 6 -3.8
v 0 2.1 -3.9
v 0 2.2 -3.9
v 0 5.8 -3.9
v 0 5.9 -3.9
v 0.1 2 -3.9
v 0.1 2.1 -3.9
v 0.1 2.2 -3.9
v 0.1 5.8 -3.9
v 0.1 5.9 -3.9
v 0.1 6 -3.9
v 0.2 2 -3.9
v 0.2 2.1 -3.9
v 0.2 5.9 -3.9
v 0.2 6 -3.9
v 3.8 2 -3.9
v 3.8 2.1 -3.9
v 3.8 5.9 -3.9
v 3.8 6 -3.9
v 3.9 2 -3.9
v 3.9 2.1 -3.9
v 3.9 2.2 -3.9
v 3.9 5.8 -3.9
v 3.9 5.9 -3.9
v 3.9 6 -3.9
v 4 2.1 -3.9
v 4 2.2 -3.9
v 4 5.8 -3.9
v 4 5.9 -3.9
v 0 2.2 -4
v 0 5.8 -4
v 0.1 2.1 -4
v 0.1 2.2 -4
v 0.1 5.8 -4
v 0.1 5.9 -4
v 0.2 2 -4
v 0.2 2.1 -4
v 0.2 5.9 -4
v 0.2 6 -4
v 3.8 2 -4
v 3.8 2.1 -4
v 3.8 5.9 -4
v 3.8 6 -4
v 3.9 2.1 -4
v 3.9 2.2 -4
v 3.9 5.8 -4
v 3.9 5.9 -4
v 4 2.2 -4
v 4 5.8 -4
v 0.2 2 0
v 3.8 2 0
v 0.1 2 -0.1
v 0.2 2 -0.1
v 3.8 2 -0.1
v 3.9 2 -0.1
v 0 2 -0.2
v 0.1 2 -0.2
v 3.9 2 -0.2
v 4 2 -0.2
v 0 2 -3.8
v 0.1 2 -3.8
v 3.9 2 -3.8
v 4 2 -3.8
v 0.1 2 -3.9
v 0.2 2 -3.9
v 3.8 2 -3.9
v 3.9 2 -3.9
v 0.2 2 -4
v 3.8 2 -4
v 0.1 2.1 0
v 0.2 2.1 0
v 3.8 2.1 0
v 3.9 2.1 0
v 0 2.1 -0.1
v 0.1 2.1 -0.1
v 0.2 2.1 -0.1
v 3.8 2.1 -0.1
v 3.9 2.1 -0.1
v 4 2.1 -0.1
v 0 2.1 -0.2
v 0.1 2.1 -0.2
v 3.9 2.1 -0.2
v 4 2.1 -0.2
v 0 2.1 -3.8
v 0.1 2.1 -3.8
v 3.9 2.1 -3.8
v 4 2.1 -3.8
v 0 2.1 -3.9
v 0.1 2.1 -3.9
v 0.2 2.1 -3.9
v 3.8 2.1 -3.9
v 3.9 2.1 -3.9
v 4 2.1 -3.9
v 0.1 2.1 -4
v 0.2 2.1 -4
v 3.8 2.1 -4
v 3.9 2.1 -4
v 0 2.2 0
v 0.1 2.2 0
v 3.9 2.2 0
v 4 2.2 0
v 0 2.2 -0.1
v 0.1 2.2 -0.1
v 3.9 2.2 -0.1
v 4 2.2 -0.1
v 0 2.2 -3.9
v 0.1 2.2 -3.9
v 3.9 2.2 -3.9
v 4 2.2 -3.9
v 0 2.2 -4
v 0.1 2.2 -4
v 3.9 2.2 -4
v 4 2.2 -4
v 0 5.8 0
v 0.1 5.8 0
v 3.9 5.8 0
v 4 5.8 0
v 0 5.8 -0.1
v 0.1 5.8 -0.1
v 3.9 5.8 -0.1
v 4 5.8 -0.1
v 0 5.8 -3.9
v 0.1 5.8 -3.9
v 3.9 5.8 -3.9
v 4 5.8 -3.9
v 0 5.8 -4
v 0.1 5.8 -4
v 3.9 5.8 -4
v 4 5.8 -4
v 0.1 5.9 0
v 0.2 5.9 0
v 3.8 5.9 0
v 3.9 5.9 0
v 0 5.9 -0.1
v 0.1 5.9 -0.1
v 0.2 5.9 -0.1
v 3.8 5.9 -0.1
v 3.9 5.9 -0.1
v 4 5.9 -0.1
v 0 5.9 -0.2
v 0.1 5.9 -0.2
v 3.9 5.9 -0.2
v 4 5.9 -0.2
v 0 5.9 -3.8
v 0.1 5.9 -3.8
v 3.9 5.9 -3.8
v 4 5.9 -3.8
v 0 5.9 -3.9
v 0.1 5.9 -3.9
v 0.2 5.9 -3.9
v 3.8 5.9 -3.9
v 3.9 5.9 -3.9
v 4 5.9 -3.9
v 0.1 5.9 -4
v 0.2 5.9 -4
v 3.8 5.9 -4
v 3.9 5.9 -4
v 0.2 6 0
v 3.8 6 0
v 0.1 6 -0.1
v 0.2 6 -0.1
v 3.8 6 -0.1
v 3.9 6 -0.1
v 0 6 -0.2
v 0.1 6 -0.2
v 3.9 6 -0.2
v 4 6 -0.2
v 0 6 -3.8
v 0.1 6 -3.8
v 3.9 6 -3.8
v 4 6 -3.8
v 0.1 6 -3.9
v 0.2 6 -3.9
v 3.8 6 -3.9
v 3.9 6 -3.9
v 0.2 6 -4
v 3.8 6 -4

# faces
f 4/2/1 2/2/1 1/2/1
f 5/2/1 2/2/1 4/2/1
f 8/2/1 4/2/1 3/2/1
f 8/2/1 6/2/1 5/2/1
f 8/2/1 5/2/1 4/2/1
f 9/2/1 6/2/1 8/2/1
f 11/2/1 8/2/1 7/2/1
f 11/2/1 10/2/1 9/2/1
f 11/2/1 9/2/1 8/2/1
f 12/2/1 10/2/1 11/2/1
f 13/2/1 10/2/1 12/2/1
f 14/2/1 10/2/1 13/2/1
f 15/2/1 13/2/1 12/2/1
f 16/2/1 13/2/1 15/2/1
f 17/2/1 13/2/1 16/2/1
f 18/2/1 13/2/1 17/2/1
f 19/2/1 17/2/1 16/2/1
f 20/2/1 17/2/1 19/2/1
f 26/2/1 22/2/1 21/2/1
f 27/2/1 22/2/1 26/2/1
f 28/2/1 24/2/1 23/2/1
f 29/2/1 24/2/1 28/2/1
f 31/2/1 26/2/1 25/2/1
f 32/2/1 26/2/1 31/2/1
f 33/2/1 30/2/1 29/2/1
f 34/2/1 30/2/1 33/2/1
f 39/2/1 36/2/1 35/2/1
f 40/2/1 36/2/1 39/2/1
f 43/2/1 38/2/1 37/2/1
f 44/2/1 38/2/1 43/2/1
f 45/2/1 41/2/1 40/2/1
f 46/2/1 41/2/1 45/2/1
f 47/2/1 43/2/1 42/2/1
f 48/2/1 43/2/1 47/2/1
f 53/2/1 50/2/1 49/2/1
f 54/2/1 50/2/1 53/2/1
f 55/2/1 52/2/1 51/2/1
f 56/2/1 52/2/1 55/2/1
f 61/2/1 58/2/1 57/2/1
f 62/2/1 58/2/1 61/2/1
f 63/2/1 60/2/1 59/2/1
f 64/2/1 60/2/1 63/2/1
f 65/2/2 66/2/2 69/2/2
f 69/2/2 66/2/2 70/2/2
f 67/2/2 68/2/2 71/2/2
f 71/2/2 68/2/2 72/2/2
f 73/2/2 74/2/2 77/2/2
f 77/2/2 74/2/2 78/2/2
f 75/2/2 76/2/2 79/2/2
f 79/2/2 76/2/2 80/2/2
f 81/2/2 82/2/2 86/2/2
f 86/2/2 82/2/2 87/2/2
f 83/2/2 84/2/2 88/2/2
f 88/2/2 84/2/2 89/2/2
f 85/2/2 86/2/2 91/2/2
f 91/2/2 86/2/2 92/2/2
f 89/2/2 90/2/2 93/2/2
f 93/2/2 90/2/2 94/2/2
f 95/2/2 96/2/2 99/2/2
f 99/2/2 96/2/2 100/2/2
f 97/2/2 98/2/2 103/2/2
f 103/2/2 98/2/2 104/2/2
f 100/2/2 101/2/2 105/2/2
f 105/2/2 101/2/2 106/2/2
f 102/2/2 103/2/2 107/2/2
f 107/2/2 103/2/2 108/2/2
f 109/2/2 110/2/2 112/2/2
f 112/2/2 110/2/2 113/2/2
f 111/2/2 112/2/2 116/2/2
f 113/2/2 114/2/2 116/2/2
f 112/2/2 113/2/2 116/2/2
f 116/2/2 114/2/2 117/2/2
f 115/2/2 116/2/2 119/2/2
f 117/2/2 118/2/2 119/2/2
f 116/2/2 117/2/2 119/2/2
f 119/2/2 118/2/2 120/2/2
f 120/2/2 118/2/2 121/2/2
f 121/2/2 118/2/2 122/2/2
f 115/2/2 119/2/2 123/2/2
f 119/1/2 120/1/2 124/1/2
f 123/2/2 119/2/2 124/2/2
f 120/2/2 121/2/2 125/2/2
f 124/1/2 120/1/2 125/1/2
f 125/2/2 121/2/2 126/2/2
f 126/2/2 121/2/2 127/2/2
f 121/1/2 122/1/2 128/1/2
f 127/2/2 121/2/2 128/2/2
f 122/2/2 118/2/2 129/2/2
f 128/1/2 122/1/2 129/1/2
f 129/2/2 118/2/2 130/2/2
f 115/2/2 123/2/2 131/2/2
f 123/1/2 124/1/2 131/1/2
f 124/2/2 125/2/2 132/2/2
f 131/1/2 124/1/2 132/1/2
f 125/2/2 126/2/2 132/2/2
f 126/3/2 127/3/2 133/3/2
f 133/3/2 127/3/2 134/3/2
f 127/2/2 128/2/2 135/2/2
f 129/1/2 130/1/2 135/1/2
f 128/2/2 129/2/2 135/2/2
f 130/2/2 118/2/2 136/2/2
f 135/1/2 130/1/2 136/1/2
f 115/2/2 131/2/2 137/2/2
f 131/2/2 132/2/2 137/2/2
f 132/2/2 126/2/2 138/2/2
f 137/2/2 132/2/2 138/2/2
f 126/3/2 133/3/2 139/3/2
f 138/2/2 126/2/2 139/2/2
f 133/2/2 134/2/2 140/2/2
f 139/3/2 133/3/2 140/3/2
f 134/3/2 127/3/2 141/3/2
f 140/2/2 134/2/2 141/2/2
f 127/2/2 135/2/2 142/2/2
f 141/3/2 127/3/2 142/3/2
f 135/2/2 136/2/2 142/2/2
f 142/2/2 136/2/2 143/2/2
f 136/2/2 118/2/2 144/2/2
f 143/2/2 136/2/2 144/2/2
f 137/3/2 138/3/2 145/3/2
f 145/3/2 138/3/2 146/3/2
f 143/3/2 144/3/2 147/3/2
f 147/3/2 144/3/2 148/3/2
f 137/3/2 145/3/2 149/3/2
f 149/3/2 145/3/2 150/3/2
f 145/4/2 146/4/2 151/4/2
f 150/3/2 145/3/2 151/3/2
f 146/3/2 138/3/2 152/3/2
f 151/4/2 146/4/2 152/4/2
f 143/3/2 147/3/2 153/3/2
f 153/3/2 147/3/2 154/3/2
f 147/4/2 148/4/2 155/4/2
f 154/3/2 147/3/2 155/3/2
f 148/3/2 144/3/2 156/3/2
f 155/4/2 148/4/2 156/4/2
f 149/4/2 150/4/2 157/4/2
f 137/3/2 149/3/2 157/3/2
f 150/3/2 151/3/2 158/3/2
f 157/4/2 150/4/2 158/4/2
f 151/3/2 152/3/2 158/3/2
f 153/4/2 154/4/2 159/4/2
f 143/3/2 153/3/2 159/3/2
f 154/3/2 155/3/2 160/3/2
f 159/4/2 154/4/2 160/4/2
f 155/3/2 156/3/2 160/3/2
f 115/2/2 137/2/2 161/2/2
f 137/3/2 157/3/2 161/3/2
f 157/3/2 158/3/2 161/3/2
f 139/2/2 140/2/2 162/2/2
f 161/3/2 158/3/2 162/3/2
f 140/2/2 141/2/2 162/2/2
f 158/3/2 152/3/2 162/3/2
f 152/3/2 138/3/2 162/3/2
f 138/2/2 139/2/2 162/2/2
f 142/2/2 143/2/2 162/2/2
f 141/2/2 142/2/2 162/2/2
f 143/3/2 159/3/2 163/3/2
f 162/2/2 143/2/2 163/2/2
f 159/3/2 160/3/2 163/3/2
f 156/3/2 144/3/2 164/3/2
f 163/3/2 160/3/2 164/3/2
f 160/3/2 156/3/2 164/3/2
f 144/2/2 118/2/2 164/2/2
f 115/2/2 161/2/2 165/2/2
f 162/2/2 163/2/2 165/2/2
f 163/2/2 164/2/2 165/2/2
f 161/2/2 162/2/2 165/2/2
f 165/2/2 164/2/2 166/2/2
f 164/2/2 118/2/2 167/2/2
f 166/2/2 164/2/2 167/2/2
f 167/2/2 118/2/2 168/2/2
f 166/2/2 167/2/2 169/2/2
f 169/2/2 167/2/2 170/2/2
f 170/2/2 167/2/2 171/2/2
f 171/2/2 167/2/2 172/2/2
f 170/2/2 171/2/2 173/2/2
f 173/2/2 171/2/2 174/2/2
f 178/2/3 176/2/3 175/2/3
f 179/2/3 176/2/3 178/2/3
f 182/2/3 178/2/3 177/2/3
f 182/2/3 180/2/3 179/2/3
f 182/2/3 179/2/3 178/2/3
f 183/2/3 180/2/3 182/2/3
f 185/2/3 182/2/3 181/2/3
f 185/2/3 184/2/3 183/2/3
f 185/2/3 183/2/3 182/2/3
f 186/2/3 184/2/3 185/2/3
f 187/2/3 184/2/3 186/2/3
f 188/2/3 184/2/3 187/2/3
f 189/2/3 187/2/3 186/2/3
f 190/2/3 187/2/3 189/2/3
f 191/2/3 187/2/3 190/2/3
f 192/2/3 187/2/3 191/2/3
f 193/2/3 191/2/3 190/2/3
f 194/2/3 191/2/3 193/2/3
f 200/2/3 196/2/3 195/2/3
f 201/2/3 196/2/3 200/2/3
f 202/2/3 198/2/3 197/2/3
f 203/2/3 198/2/3 202/2/3
f 205/2/3 200/2/3 199/2/3
f 206/2/3 200/2/3 205/2/3
f 207/2/3 204/2/3 203/2/3
f 208/2/3 204/2/3 207/2/3
f 213/2/3 210/2/3 209/2/3
f 214/2/3 210/2/3 213/2/3
f 217/2/3 212/2/3 211/2/3
f 218/2/3 212/2/3 217/2/3
f 219/2/3 215/2/3 214/2/3
f 220/2/3 215/2/3 219/2/3
f 221/2/3 217/2/3 216/2/3
f 222/2/3 217/2/3 221/2/3
f 227/2/3 224/2/3 223/2/3
f 228/2/3 224/2/3 227/2/3
f 229/2/3 226/2/3 225/2/3
f 230/2/3 226/2/3 229/2/3
f 235/2/3 232/2/3 231/2/3
f 236/2/3 232/2/3 235/2/3
f 237/2/3 234/2/3 233/2/3
f 238/2/3 234/2/3 237/2/3
f 239/2/4 240/2/4 243/2/4
f 243/2/4 240/2/4 244/2/4
f 241/2/4 242/2/4 245/2/4
f 245/2/4 242/2/4 246/2/4
f 247/2/4 248/2/4 251/2/4
f 251/2/4 248/2/4 252/2/4
f 249/2/4 250/2/4 253/2/4
f 253/2/4 250/2/4 254/2/4
f 255/2/4 256/2/4 260/2/4
f 260/2/4 256/2/4 261/2/4
f 257/2/4 258/2/4 262/2/4
f 262/2/4 258/2/4 263/2/4
f 259/2/4 260/2/4 265/2/4
f 265/2/4 260/2/4 266/2/4
f 263/2/4 264/2/4 267/2/4
f 267/2/4 264/2/4 268/2/4
f 269/2/4 270/2/4 273/2/4
f 273/2/4 270/2/4 274/2/4
f 271/2/4 272/2/4 277/2/4
f 277/2/4 272/2/4 278/2/4
f 274/2/4 275/2/4 279/2/4
f 279/2/4 275/2/4 280/2/4
f 276/2/4 277/2/4 281/2/4
f 281/2/4 277/2/4 282/2/4
f 283/2/4 284/2/4 286/2/4
f 286/2/4 284/2/4 287/2/4
f 285/2/4 286/2/4 290/2/4
f 287/2/4 288/2/4 290/2/4
f 286/2/4 287/2/4 290/2/4
f 290/2/4 288/2/4 291/2/4
f 289/2/4 290/2/4 293/2/4
f 291/2/4 292/2/4 293/2/4
f 290/2/4 291/2/4 293/2/4
f 293/2/4 292/2/4 294/2/4
f 294/2/4 292/2/4 295/2/4
f 295/2/4 292/2/4 296/2/4
f 294/2/4 295/2/4 297/2/4
f 297/2/4 295/2/4 298/2/4
f 298/2/4 295/2/4 299/2/4
f 299/2/4 295/2/4 300/2/4
f 298/2/4 299/2/4 301/2/4
f 301/2/4 299/2/4 302/2/4
f 306/2/5 304/2/5 303/2/5
f 307/2/5 304/2/5 306/2/5
f 310/2/5 306/2/5 305/2/5
f 310/2/5 308/2/5 307/2/5
f 310/2/5 307/2/5 306/2/5
f 311/2/5 308/2/5 310/2/5
f 313/2/5 310/2/5 309/2/5
f 313/2/5 312/2/5 311/2/5
f 313/2/5 311/2/5 310/2/5
f 314/2/5 312/2/5 313/2/5
f 315/2/5 312/2/5 314/2/5
f 316/2/5 312/2/5 315/2/5
f 317/2/5 315/2/5 314/2/5
f 318/2/5 315/2/5 317/2/5
f 319/2/5 315/2/5 318/2/5
f 320/2/5 315/2/5 319/2/5
f 321/2/5 319/2/5 318/2/5
f 322/2/5 319/2/5 321/2/5
f 328/2/5 324/2/5 323/2/5
f 329/2/5 324/2/5 328/2/5
f 330/2/5 326/2/5 325/2/5
f 331/2/5 326/2/5 330/2/5
f 333/2/5 328/2/5 327/2/5
f 334/2/5 328/2/5 333/2/5
f 335/2/5 332/2/5 331/2/5
f 336/2/5 332/2/5 335/2/5
f 341/2/5 338/2/5 337/2/5
f 342/2/5 338/2/5 341/2/5
f 345/2/5 340/2/5 339/2/5
f 346/2/5 340/2/5 345/2/5
f 347/2/5 343/2/5 342/2/5
f 348/2/5 343/2/5 347/2/5
f 349/2/5 345/2/5 344/2/5
f 350/2/5 345/2/5 349/2/5
f 355/2/5 352/2/5 351/2/5
f 356/2/5 352/2/5 355/2/5
f 357/2/5 354/2/5 353/2/5
f 358/2/5 354/2/5 357/2/5
f 363/2/5 360/2/5 359/2/5
f 364/2/5 360/2/5 363/2/5
f 365/2/5 362/2/5 361/2/5
f 366/2/5 362/2/5 365/2/5
f 367/2/6 368/2/6 371/2/6
f 371/2/6 368/2/6 372/2/6
f 369/2/6 370/2/6 373/2/6
f 373/2/6 370/2/6 374/2/6
f 375/2/6 376/2/6 379/2/6
f 379/2/6 376/2/6 380/2/6
f 377/2/6 378/2/6 381/2/6
f 381/2/6 378/2/6 382/2/6
f 383/2/6 384/2/6 388/2/6
f 388/2/6 384/2/6 389/2/6
f 385/2/6 386/2/6 390/2/6
f 390/2/6 386/2/6 391/2/6
f 387/2/6 388/2/6 393/2/6
f 393/2/6 388/2/6 394/2/6
f 391/2/6 392/2/6 395/2/6
f 395/2/6 392/2/6 396/2/6
f 397/2/6 398/2/6 401/2/6
f 401/2/6 398/2/6 402/2/6
f 399/2/6 400/2/6 405/2/6
f 405/2/6 400/2/6 406/2/6
f 402/2/6 403/2/6 407/2/6
f 407/2/6 403/2/6 408/2/6
f 404/2/6 405/2/6 409/2/6
f 409/2/6 405/2/6 410/2/6
f 411/2/6 412/2/6 414/2/6
f 414/2/6 412/2/6 415/2/6
f 413/2/6 414/2/6 418/2/6
f 415/2/6 416/2/6 418/2/6
f 414/2/6 415/2/6 418/2/6
f 418/2/6 416/2/6 419/2/6
f 417/2/6 418/2/6 421/2/6
f 419/2/6 420/2/6 421/2/6
f 418/2/6 419/2/6 421/2/6
f 421/2/6 420/2/6 422/2/6
f 422/2/6 420/2/6 423/2/6
f 423/2/6 420/2/6 424/2/6
f 422/2/6 423/2/6 425/2/6
f 425/2/6 423/2/6 426/2/6
f 426/2/6 423/2/6 427/2/6
f 427/2/6 423/2/6 428/2/6
f 426/2/6 427/2/6 429/2/6
f 429/2/6 427/2/6 430/2/6
